<?xml version="1.0" standalone="no"?>
<!DOCTYPE svg PUBLIC "-//W3C//DTD SVG 20010904//EN"
 "http://www.w3.org/TR/2001/REC-SVG-20010904/DTD/svg10.dtd">
<svg version="1.0" xmlns="http://www.w3.org/2000/svg"
 width="1000.000000pt" height="1000.000000pt" viewBox="0 0 1000.000000 1000.000000"
 preserveAspectRatio="xMidYMid meet">

<g transform="translate(0.000000,1000.000000) scale(0.100000,-0.100000)"
fill="#000000" stroke="none">
<path d="M0 5000 l0 -5000 5000 0 5000 0 0 5000 0 5000 -5000 0 -5000 0 0
-5000z m2000 1549 c0 -14 -44 -17 -61 -6 -15 11 -12 13 22 12 21 0 39 -3 39
-6z m124 -1 c-3 -4 -23 -8 -44 -8 -21 0 -41 4 -44 8 -3 5 17 8 44 8 27 0 47
-3 44 -8z m304 -11 c10 -9 24 -17 30 -17 7 0 12 -4 12 -10 0 -13 -30 -1 -57
22 -15 14 -30 18 -50 15 -15 -3 -48 -2 -73 2 -38 7 -31 8 37 7 61 -2 87 -7
101 -19z m42 13 c8 -5 12 -11 10 -14 -3 -2 -14 2 -24 10 -22 15 -10 19 14 4z
m5550 0 c0 -5 -4 -10 -10 -10 -5 0 -10 5 -10 10 0 6 5 10 10 10 6 0 10 -4 10
-10z m60 -15 c-86 -28 -88 -29 -74 -15 12 12 97 37 129 38 11 1 -14 -10 -55
-23z m113 18 c-7 -2 -19 -2 -25 0 -7 3 -2 5 12 5 14 0 19 -2 13 -5z m160 0
c-13 -2 -35 -2 -50 0 -16 2 -5 4 22 4 28 0 40 -2 28 -4z m84 0 c-4 -3 5 -15
20 -26 28 -18 28 -18 3 -12 -14 4 -38 14 -55 21 -16 8 -22 12 -12 9 9 -2 17 0
17 5 0 6 8 10 17 10 9 0 13 -3 10 -7z m-57 -30 c93 -25 172 -67 229 -120 13
-12 28 -20 33 -17 4 3 8 -2 8 -10 0 -9 3 -16 8 -16 4 0 20 -21 37 -48 16 -26
32 -49 36 -52 3 -3 19 -36 35 -75 28 -68 29 -76 30 -253 1 -100 -2 -184 -6
-187 -5 -3 -7 12 -4 32 2 21 1 31 -2 23 -3 -8 -12 -29 -20 -47 -8 -17 -14 -33
-14 -36 0 -29 -163 -221 -189 -222 -3 0 -17 -8 -31 -17 -14 -9 -35 -19 -47
-23 -13 -3 -22 -9 -22 -13 3 -19 -2 -25 -10 -13 -7 11 -13 12 -23 4 -49 -41
-328 -42 -372 -2 -6 5 -17 9 -25 9 -24 0 0 -18 43 -33 l38 -13 -55 0 c-54 1
-55 2 -50 27 4 22 1 27 -20 33 -34 8 -156 107 -187 151 -19 26 -30 34 -47 30
-17 -4 -23 2 -32 27 -13 38 -14 48 -1 28 5 -8 12 -11 16 -7 4 3 2 12 -3 19
-20 26 -53 139 -53 183 0 25 -5 54 -12 65 -9 15 -9 24 0 42 7 13 14 56 15 95
1 40 4 67 6 61 6 -18 33 65 32 99 0 18 4 35 9 38 7 4 9 -3 5 -22 l-7 -28 21
25 c11 14 21 31 21 38 0 7 7 15 15 18 11 5 14 15 9 39 -5 29 -3 33 25 43 17 6
31 16 31 22 0 6 10 8 25 4 14 -3 25 -2 25 4 0 5 8 12 18 15 9 4 35 17 57 30
117 69 267 88 405 50z m-6052 5 c35 -9 47 -9 50 0 2 7 8 12 14 12 6 0 8 -6 5
-14 -4 -10 3 -17 21 -21 38 -8 149 -82 198 -132 40 -41 94 -116 94 -129 0 -4
7 -15 15 -24 49 -54 70 -339 31 -430 -36 -85 -61 -132 -92 -168 -22 -26 -31
-46 -29 -67 1 -26 -2 -30 -24 -32 l-26 -1 24 19 c13 11 21 22 18 26 -10 9 -74
-52 -69 -66 3 -8 0 -11 -7 -7 -6 4 -24 -2 -40 -13 -16 -12 -35 -21 -43 -22 -7
0 -4 -4 7 -8 15 -6 10 -8 -20 -8 -22 1 -60 -9 -85 -22 -36 -18 -62 -22 -135
-22 -84 -1 -186 16 -230 38 -11 5 -48 24 -83 41 -35 18 -68 29 -74 25 -7 -4
-9 0 -5 9 4 11 -10 31 -43 61 -27 25 -46 47 -44 50 7 7 -33 47 -45 47 -6 0
-13 4 -16 10 -4 6 1 7 11 3 17 -6 17 -5 1 17 -9 14 -17 32 -17 41 0 9 -9 38
-21 64 -12 26 -22 73 -24 104 -1 31 -3 74 -4 96 l-3 40 -9 -30 c-5 -16 -7 -46
-3 -66 4 -25 1 -38 -8 -41 -10 -4 -13 12 -13 72 0 43 3 73 7 67 6 -9 8 -8 8 2
0 7 6 11 15 8 10 -5 16 4 20 31 4 20 12 47 18 60 6 13 11 47 12 77 0 53 22 95
49 95 8 0 8 -3 0 -8 -10 -7 -44 -74 -44 -87 0 -4 7 -2 15 5 8 7 15 17 15 23 0
5 11 25 25 43 15 20 23 40 19 51 -4 13 -3 15 4 4 7 -10 11 -10 17 -1 4 6 -1
20 -11 31 -20 23 -12 26 10 3 15 -14 18 -14 39 3 13 10 22 24 19 32 -3 9 0 11
7 6 7 -4 20 0 30 9 30 27 143 78 201 92 72 16 189 17 248 2z m-343 -15 c-11
-3 -25 -11 -32 -20 -6 -8 -29 -16 -50 -18 -21 -1 -27 0 -13 2 13 3 35 13 48
24 14 10 34 18 46 18 20 -1 20 -2 1 -6z m552 -39 c-3 -3 -12 -4 -19 -1 -8 3
-5 6 6 6 11 1 17 -2 13 -5z m76 -1 c-7 -2 -19 -2 -25 0 -7 3 -2 5 12 5 14 0
19 -2 13 -5z m5309 -15 c-24 -16 -56 -16 -72 -1 -10 9 24 20 60 19 l38 -1 -26
-17z m673 2 c27 -30 12 -34 -15 -5 -13 14 -19 25 -13 25 5 0 18 -9 28 -20z
m40 -1 c4 -11 4 -23 1 -26 -3 -4 -6 1 -6 10 0 10 -4 17 -10 17 -5 0 -10 5 -10
10 0 18 19 10 25 -11z m-6775 -4 c7 -9 8 -15 2 -15 -5 0 -12 7 -16 15 -3 8 -4
15 -2 15 2 0 9 -7 16 -15z m738 -20 c-3 -3 -13 -2 -22 1 -14 5 -15 9 -4 15 13
8 36 -6 26 -16z m36 -30 c3 -8 12 -12 19 -9 8 3 17 -3 21 -13 10 -28 32 -63
37 -59 2 2 4 -10 5 -27 1 -32 1 -32 -10 -7 -12 27 -18 36 -59 80 -15 16 -32
30 -38 30 -5 0 -7 5 -4 10 9 14 22 12 29 -5z m6006 5 c0 -5 -4 -10 -10 -10 -5
0 -10 5 -10 10 0 6 5 10 10 10 6 0 10 -4 10 -10z m-5926 -26 c9 -24 7 -28 -9
-14 -17 14 -20 30 -6 30 5 0 12 -7 15 -16z m5983 10 c-3 -3 -12 -4 -19 -1 -8
3 -5 6 6 6 11 1 17 -2 13 -5z m-930 -26 c-3 -8 -6 -5 -6 6 -1 11 2 17 5 13 3
-3 4 -12 1 -19z m941 -17 c3 -8 -1 -12 -9 -9 -7 2 -15 10 -17 17 -3 8 1 12 9
9 7 -2 15 -10 17 -17z m-940 -41 c-7 -10 -14 -18 -15 -16 -6 6 9 36 18 36 5 0
4 -9 -3 -20z m989 -19 c7 -9 13 -27 13 -40 0 -15 5 -21 14 -18 10 4 12 0 9
-14 -8 -30 -21 -22 -34 22 -7 22 -21 45 -31 50 -10 5 -18 14 -18 19 0 13 32 0
47 -19z m39 14 c11 -27 -1 -33 -19 -9 -16 21 -16 24 -2 24 9 0 18 -7 21 -15z
m-1091 -44 c0 -22 -3 -34 -7 -28 -10 16 -10 67 0 67 4 0 7 -18 7 -39z m-4935
-42 c0 -11 -4 -17 -10 -14 -5 3 -10 13 -10 21 0 8 5 14 10 14 6 0 10 -9 10
-21z m27 -16 c-3 -10 -5 -4 -5 12 0 17 2 24 5 18 2 -7 2 -21 0 -30z m-18 -35
c0 -13 4 -41 10 -63 16 -62 11 -66 -9 -6 -9 30 -15 63 -12 73 6 25 12 23 11
-4z m6018 -15 c-3 -10 -5 -4 -5 12 0 17 2 24 5 18 2 -7 2 -21 0 -30z m-7167
-23 c6 0 10 7 10 15 0 8 5 15 10 15 7 0 7 -7 -1 -21 -6 -12 -9 -30 -6 -40 8
-31 -10 -21 -27 15 -18 37 -21 61 -5 34 5 -10 14 -18 19 -18z m1167 -230 c-3
-62 -12 -112 -22 -132 -9 -20 -13 -43 -10 -60 4 -16 2 -28 -3 -28 -25 0 -21
56 8 110 13 24 16 52 19 148 0 34 4 62 7 62 4 0 4 -45 1 -100z m4823 75 c9
-24 4 -55 -9 -55 -3 0 -6 18 -6 40 -1 46 2 49 15 15z m30 15 c0 -5 -2 -10 -4
-10 -3 0 -8 5 -11 10 -3 6 -1 10 4 10 6 0 11 -4 11 -10z m15 -60 c3 -5 -1 -10
-9 -10 -9 0 -16 5 -16 10 0 6 4 10 9 10 6 0 13 -4 16 -10z m-6021 -86 c3 -9 6
-26 6 -38 0 -12 5 -27 12 -34 9 -9 9 -12 0 -12 -6 0 -17 19 -23 43 -6 23 -14
35 -16 27 -11 -37 -14 -43 -18 -38 -7 7 15 68 25 68 4 0 11 -7 14 -16z m1149
-101 c-3 -18 -9 -33 -13 -33 -5 0 -4 15 1 32 5 18 9 35 9 37 0 2 2 2 4 0 2 -2
1 -19 -1 -36z m4906 -18 c-1 -29 -1 -29 -9 -5 -4 14 -8 34 -9 45 -1 16 1 17 9
5 5 -8 9 -28 9 -45z m1100 -28 c0 -21 -1 -21 -9 -2 -12 28 -12 37 0 30 6 -3
10 -16 9 -28z m-6064 -7 c3 -5 1 -10 -4 -10 -6 0 -11 5 -11 10 0 6 2 10 4 10
3 0 8 -4 11 -10z m6035 0 c0 -5 -4 -10 -10 -10 -5 0 -10 5 -10 10 0 6 5 10 10
10 6 0 10 -4 10 -10z m-7068 -77 c7 -9 7 -13 0 -13 -13 0 -22 25 -21 53 2 19
2 19 6 -3 3 -14 10 -31 15 -37z m1016 18 c-1 -22 -4 -26 -13 -18 -9 9 -9 16
-1 29 14 23 15 23 14 -11z m-988 -1 c6 -11 9 -20 7 -20 -2 0 -12 9 -22 20 -10
11 -13 20 -7 20 6 0 16 -9 22 -20z m6987 -30 c-1 -19 -9 -32 -20 -36 -26 -8
-67 -49 -67 -66 0 -24 -43 -58 -60 -48 -9 6 -17 5 -21 -2 -4 -6 -13 -8 -20 -6
-8 3 4 12 26 22 25 11 49 33 65 57 13 22 34 42 45 45 11 3 26 18 34 35 16 37
21 37 18 -1z m-917 -22 c0 -9 5 -20 10 -23 16 -10 12 -25 -5 -19 -8 4 -15 1
-15 -5 0 -6 -8 -11 -17 -11 -17 1 -17 2 1 15 13 10 17 21 12 39 -3 15 -11 26
-16 26 -6 0 -10 5 -10 10 0 6 8 5 20 -2 11 -7 20 -20 20 -30z m-93 26 c-3 -3
-12 -4 -19 -1 -8 3 -5 6 6 6 11 1 17 -2 13 -5z m60 -36 c-3 -8 -6 -5 -6 6 -1
11 2 17 5 13 3 -3 4 -12 1 -19z m-5947 -43 c0 -1 -14 -2 -30 -2 -17 0 -26 3
-21 6 6 4 6 12 1 21 -18 29 -10 30 20 3 17 -14 30 -27 30 -28z m6047 -14 c3
-11 14 -22 25 -24 11 -3 17 -10 14 -16 -10 -16 -30 -4 -50 29 -11 19 -13 30
-6 30 7 0 14 -9 17 -19z m-5967 -41 c14 -11 20 -20 13 -20 -6 0 -19 -3 -27 -6
-12 -5 -15 -2 -10 10 7 19 -7 21 -24 4 -9 -9 -12 -9 -12 3 0 34 24 37 60 9z
m658 -13 c2 -11 -3 -17 -15 -17 -15 0 -16 2 -3 10 10 6 11 10 3 10 -7 0 -13 5
-13 11 0 17 25 4 28 -14z m5317 -15 c-7 -8 -35 13 -35 26 0 13 3 12 19 -4 10
-10 17 -20 16 -22z m85 6 c8 -3 -1 -5 -21 -5 -28 1 -34 4 -25 13 6 7 16 9 21
4 6 -4 17 -10 25 -12z m680 2 c0 -5 -5 -10 -11 -10 -5 0 -7 5 -4 10 3 6 8 10
11 10 2 0 4 -4 4 -10z m-6600 -46 c0 -2 -9 -4 -20 -4 -11 0 -20 4 -20 9 0 5 9
7 20 4 11 -3 20 -7 20 -9z m40 -4 c0 -5 10 -10 22 -10 12 0 19 -3 15 -6 -9 -9
-68 7 -61 17 7 12 24 12 24 -1z m310 0 c-20 -13 -43 -13 -35 0 3 6 16 10 28
10 18 0 19 -2 7 -10z m6030 -10 c-14 -4 -32 -4 -40 -1 -10 3 -4 8 15 11 37 8
59 -2 25 -10z m-76 1 c3 -5 -4 -11 -17 -15 -33 -9 -160 -7 -175 3 -8 5 25 7
77 6 50 -1 91 2 91 7 0 11 17 10 24 -1z m125 -22 c-8 -5 -21 -8 -29 -8 -13 1
-13 1 0 6 8 3 19 13 24 22 7 12 10 13 14 2 2 -7 -2 -17 -9 -22z m-6144 12 c-9
-8 -210 -23 -202 -14 6 6 118 20 167 22 26 0 40 -3 35 -8z m5785 -10 c27 -6
19 -8 -36 -7 -58 1 -68 3 -55 13 9 7 25 10 36 7 11 -3 36 -9 55 -13z m-5725
-1 c-11 -5 -27 -9 -35 -9 -9 0 -8 4 5 9 11 5 27 9 35 9 9 0 8 -4 -5 -9z m-278
-6 c-3 -3 -12 -4 -19 -1 -8 3 -5 6 6 6 11 1 17 -2 13 -5z m6266 -1 c-7 -2 -21
-2 -30 0 -10 3 -4 5 12 5 17 0 24 -2 18 -5z m72 -1850 c-11 -3 -26 -10 -32
-15 -9 -7 -13 -7 -13 0 0 13 18 21 45 20 l20 0 -20 -5z m38 -8 c-3 -9 -8 -14
-10 -11 -3 3 -2 9 2 15 9 16 15 13 8 -4z m82 5 c3 -5 15 -10 25 -10 11 0 44
-11 74 -24 44 -20 62 -35 93 -82 34 -52 38 -65 41 -134 4 -68 1 -82 -21 -116
-15 -25 -47 -52 -85 -74 -34 -19 -60 -40 -58 -46 3 -7 -3 -10 -12 -7 -20 5
-60 -22 -50 -33 4 -4 14 -1 23 6 18 15 28 9 20 -12 -4 -11 -21 -15 -63 -14
-44 0 -65 -6 -94 -25 -20 -13 -37 -27 -38 -30 0 -3 15 -11 33 -17 32 -10 31
-11 -14 -9 -32 1 -45 6 -42 14 5 13 9 15 -126 -50 -55 -26 -69 -36 -55 -41 10
-3 2 -3 -18 0 -23 3 -38 1 -38 -6 0 -5 -5 -10 -11 -10 -5 0 -34 -11 -62 -24
-29 -13 -77 -29 -107 -37 -30 -7 -57 -16 -60 -20 -3 -4 -35 -17 -73 -29 -72
-23 -88 -36 -32 -26 19 4 35 3 35 -1 0 -4 -36 -9 -80 -9 -44 -1 -86 -6 -93
-12 -33 -27 -393 -116 -602 -148 -55 -9 -115 -18 -132 -21 -19 -3 -30 -9 -26
-16 4 -6 -4 -8 -23 -4 -16 3 -96 -1 -179 -10 -200 -21 -648 -20 -838 1 -155
18 -160 18 -132 6 26 -11 -46 -11 -90 0 -28 7 -27 8 15 10 41 1 38 3 -40 19
-103 22 -204 34 -175 22 13 -6 2 -8 -34 -5 -63 5 -80 14 -30 15 l34 1 -35 10
c-19 5 -53 14 -75 20 -22 6 -51 14 -65 19 -14 5 -34 11 -45 14 -11 2 -51 13
-90 25 -38 12 -81 24 -94 27 -14 3 -81 28 -150 56 -88 34 -143 50 -181 52 -31
1 -66 7 -79 14 -36 20 -16 25 24 7 20 -10 43 -16 52 -14 12 2 10 6 -8 14 -13
6 -36 17 -50 24 -15 7 -36 9 -48 5 -18 -5 -22 -3 -19 12 2 15 -3 18 -32 16
-27 -2 -30 0 -15 6 18 8 18 10 -10 20 -47 18 -75 34 -75 43 0 4 -7 8 -16 8 -8
0 -35 14 -59 30 -24 17 -47 30 -51 30 -4 0 -16 8 -26 17 -17 15 -21 15 -29 3
-8 -11 -9 -10 -4 7 4 16 -1 33 -18 55 -40 55 -50 90 -38 136 29 106 73 166
141 192 19 7 45 22 57 33 12 10 28 17 35 14 9 -4 7 -6 -4 -6 -10 -1 -18 -6
-18 -12 0 -6 8 -8 18 -4 11 3 59 -9 108 -26 49 -17 103 -30 119 -30 20 0 25
-2 17 -8 -11 -6 -10 -10 4 -15 10 -4 21 -1 25 6 7 10 11 10 21 0 9 -9 9 -12 0
-12 -24 0 -11 -17 26 -33 23 -10 54 -15 85 -12 27 2 45 0 42 -6 -4 -5 -20 -9
-38 -9 l-31 0 38 -19 c21 -11 45 -17 53 -14 10 4 14 2 10 -4 -6 -10 32 -33 55
-33 6 0 38 -13 72 -28 34 -16 90 -39 126 -51 36 -13 75 -28 88 -34 18 -8 25
-8 31 2 7 10 9 9 14 -2 5 -13 27 -15 134 -11 86 3 123 1 113 -6 -13 -8 -13
-10 2 -10 31 0 67 -22 70 -44 2 -16 13 -22 48 -29 25 -4 58 -5 73 -2 15 2 25
1 22 -4 -6 -11 112 -26 141 -18 10 2 -3 6 -31 7 -38 1 -45 4 -30 10 17 8 16 9
-10 11 -26 1 -27 2 -6 6 13 3 28 0 34 -6 6 -6 26 -11 44 -11 21 0 33 -5 33
-14 0 -9 22 -16 73 -21 108 -12 500 -14 597 -3 47 5 112 12 145 14 126 11 298
45 311 62 17 22 17 29 2 35 -10 4 -9 8 2 16 8 6 20 11 25 11 6 0 3 -5 -5 -10
-13 -9 -13 -11 -1 -19 9 -6 22 -6 32 0 12 6 19 5 22 -4 3 -9 7 -9 20 2 10 8
24 10 34 6 15 -6 13 -9 -12 -16 -16 -5 -37 -7 -45 -4 -8 3 -28 -4 -45 -15 -33
-22 -27 -25 19 -10 17 5 76 19 131 32 74 17 93 24 75 28 -14 4 2 6 36 6 55 -1
63 2 86 29 15 17 30 26 34 22 5 -4 2 -12 -6 -17 -23 -15 -5 -12 78 12 69 20
74 23 47 29 -20 4 -12 6 26 5 31 -1 67 4 80 10 55 26 126 53 151 59 16 3 27 9
27 13 -3 18 2 32 11 32 5 0 7 -7 4 -15 -8 -20 -1 -19 54 9 26 13 58 27 72 31
14 4 68 27 120 52 52 24 112 51 132 61 21 9 38 20 38 25 0 10 -8 9 -31 -3 -12
-7 -19 -7 -19 -1 0 13 36 24 58 16 20 -6 77 17 125 49 21 14 25 21 15 27 -7 5
1 8 22 8 19 -1 51 3 70 7 30 6 32 8 15 15 -16 6 -17 8 -3 8 9 1 20 -3 23 -9z
m133 -12 c23 -12 30 -28 12 -28 -5 0 -10 5 -10 10 0 6 -6 10 -14 10 -7 0 -29
7 -47 15 l-34 16 35 -6 c19 -4 45 -11 58 -17z m-278 -22 c0 -3 -4 -8 -10 -11
-5 -3 -10 -1 -10 4 0 6 5 11 10 11 6 0 10 -2 10 -4z m-87 -52 c-10 -7 -19 -8
-21 -3 -5 13 -46 11 -60 -3 -8 -8 -12 -9 -12 -1 0 16 18 21 68 21 37 -1 40 -2
25 -14z m442 -1 c7 -17 8 -16 15 2 5 12 9 14 9 5 0 -8 -4 -23 -7 -33 -6 -15
-10 -13 -25 13 -10 16 -14 30 -9 30 6 0 13 -8 17 -17z m-4421 -14 c-3 -5 -10
-7 -15 -3 -5 3 -7 10 -3 15 3 5 10 7 15 3 5 -3 7 -10 3 -15z m126 1 c0 -13
-30 -13 -50 0 -11 7 -7 10 18 10 17 0 32 -4 32 -10z m-180 -58 c-8 -3 -18 -9
-21 -14 -6 -9 -39 0 -39 11 0 3 17 7 38 7 20 1 30 -1 22 -4z m3864 -9 c-12
-12 -16 -12 -28 0 -12 12 -10 14 14 14 24 0 26 -2 14 -14z m-3508 -4 c-22 -5
-43 -6 -48 -1 -4 4 14 8 40 9 l47 1 -39 -9z m3454 -19 c-8 -5 -19 -10 -25 -10
-5 0 -3 5 5 10 8 5 20 10 25 10 6 0 3 -5 -5 -10z m-3930 -49 c0 -6 -4 -13 -10
-16 -5 -3 -10 1 -10 9 0 9 5 16 10 16 6 0 10 -4 10 -9z m16 -43 c-19 -27 -21
-13 -3 25 8 17 13 22 15 12 2 -8 -4 -25 -12 -37z m584 42 c0 -5 -7 -10 -16
-10 -8 0 -12 5 -9 10 3 6 10 10 16 10 5 0 9 -4 9 -10z m93 3 c-7 -2 -19 -2
-25 0 -7 3 -2 5 12 5 14 0 19 -2 13 -5z m3126 -2 c-14 -5 -42 -16 -62 -26 -21
-10 -41 -15 -44 -11 -3 3 1 6 10 6 10 0 17 5 17 10 0 15 -58 12 -63 -2 -2 -7
-8 -9 -13 -5 -14 14 19 28 56 24 19 -2 44 -1 55 4 11 4 31 8 45 7 l25 0 -26
-7z m-3172 -7 c-3 -3 -12 -4 -19 -1 -8 3 -5 6 6 6 11 1 17 -2 13 -5z m-655
-103 c-8 -22 -9 -18 -9 23 0 40 2 45 9 26 5 -13 5 -34 0 -49z m858 29 c13 -8
13 -10 -2 -10 -9 0 -20 5 -23 10 -8 13 5 13 25 0z m2665 0 c3 -5 1 -10 -4 -10
-6 0 -11 5 -11 10 0 6 2 10 4 10 3 0 8 -4 11 -10z m52 4 c-3 -3 -12 -4 -19 -1
-8 3 -5 6 6 6 11 1 17 -2 13 -5z m-2767 -8 c0 -9 -30 -14 -35 -6 -4 6 3 10 14
10 12 0 21 -2 21 -4z m45 -26 c3 -5 -3 -10 -14 -10 -12 0 -21 5 -21 10 0 6 6
10 14 10 8 0 18 -4 21 -10z m2700 0 c-28 -12 -47 -12 -40 0 3 6 18 10 33 9 24
0 25 -1 7 -9z m1073 -35 c-2 -23 -28 -37 -28 -15 0 6 5 10 10 10 6 0 10 7 10
15 0 8 2 15 5 15 3 0 4 -11 3 -25z m-3560 -19 c3 -3 -4 -6 -15 -6 -12 0 -23
-5 -25 -12 -3 -8 -9 -8 -19 -2 -8 5 -30 14 -49 20 -32 10 -29 11 33 8 38 -1
71 -5 75 -8z m39 8 c-3 -3 -12 -4 -19 -1 -8 3 -5 6 6 6 11 1 17 -2 13 -5z
m2114 -17 c-10 -9 -11 -8 -5 6 3 10 9 15 12 12 3 -3 0 -11 -7 -18z m96 8 c28
-4 33 -3 18 4 -14 7 -15 10 -5 10 8 0 22 -3 30 -9 12 -8 12 -10 -3 -16 -23 -9
-87 2 -101 17 -8 9 -7 10 6 6 9 -3 34 -8 55 -12z m-3307 -26 c0 -6 -4 -7 -10
-4 -5 3 -10 11 -10 16 0 6 5 7 10 4 6 -3 10 -11 10 -16z m1090 6 c-7 -8 -24
-15 -39 -14 -24 0 -24 1 9 14 45 17 44 17 30 0z m3490 -16 c0 -6 9 -9 20 -6
24 6 27 -8 4 -17 -25 -10 -84 -7 -84 4 0 6 12 8 28 5 15 -3 21 -2 15 1 -18 8
-16 24 2 24 8 0 15 -5 15 -11z m-4574 -42 c-2 -18 -8 -42 -14 -53 -10 -16 -11
-13 -9 21 2 32 13 62 24 65 1 0 0 -15 -1 -33z m44 -56 c-1 -17 -30 36 -30 53
1 16 5 12 15 -13 8 -18 15 -36 15 -40z m1367 63 c-3 -3 -12 -4 -19 -1 -8 3 -5
6 6 6 11 1 17 -2 13 -5z m1633 0 c21 -5 27 -9 19 -15 -7 -4 -18 -4 -24 1 -5 4
-21 10 -35 13 -14 2 -18 5 -9 6 9 0 31 -2 49 -5z m-1292 -81 c-10 -2 -28 -2
-40 0 -13 2 -5 4 17 4 22 1 32 -1 23 -4z m95 0 c-7 -2 -19 -2 -25 0 -7 3 -2 5
12 5 14 0 19 -2 13 -5z m157 -2 c-19 -3 56 -6 168 -6 111 0 202 -3 202 -7 0
-4 -19 -9 -42 -11 -24 -3 4 -4 62 -3 63 2 93 0 75 -5 -42 -10 -255 -16 -255
-7 0 5 15 9 33 9 31 1 31 1 -8 10 -22 4 -137 7 -255 5 -166 -3 -194 -1 -125 5
50 5 97 11 105 13 8 2 29 4 45 4 28 -1 28 -1 -5 -7z m287 3 c-3 -3 -12 -4 -19
-1 -8 3 -5 6 6 6 11 1 17 -2 13 -5z m292 -10 c12 -10 -12 -12 -94 -6 -64 4
-81 8 -60 13 28 6 145 0 154 -7z m144 9 c-7 -2 -19 -2 -25 0 -7 3 -2 5 12 5
14 0 19 -2 13 -5z m-60 -10 c-13 -2 -35 -2 -50 0 -16 2 -5 4 22 4 28 0 40 -2
28 -4z m-2573 -13 c0 -5 -6 -10 -12 -11 -7 0 -2 -5 11 -10 13 -5 32 -7 41 -4
9 3 22 0 28 -7 8 -10 -2 -13 -48 -13 -33 0 -53 4 -47 8 9 6 9 10 0 13 -10 4
-10 8 0 19 14 17 27 19 27 5z m37 -6 c-3 -3 -12 -4 -19 -1 -8 3 -5 6 6 6 11 1
17 -2 13 -5z m1871 -11 c-32 -2 -84 -2 -115 0 -32 2 -6 3 57 3 63 0 89 -1 58
-3z m-1718 -91 c5 -4 -22 -22 -33 -22 -5 0 -5 5 -2 11 4 6 -2 17 -14 25 -12 8
-21 20 -21 25 0 5 15 -1 33 -13 17 -13 34 -24 37 -26z m3817 2 c-3 -3 -12 -4
-19 -1 -8 3 -5 6 6 6 11 1 17 -2 13 -5z m33 -14 c0 -5 -2 -10 -4 -10 -3 0 -8
5 -11 10 -3 6 -1 10 4 10 6 0 11 -4 11 -10z m-53 -6 c-3 -3 -12 -4 -19 -1 -8
3 -5 6 6 6 11 1 17 -2 13 -5z m-131 -49 c-11 -8 -27 -15 -35 -15 -13 1 -12 4
3 15 11 8 27 15 35 15 13 -1 12 -4 -3 -15z m19 -25 c-3 -5 -14 -10 -23 -9 -14
0 -13 2 3 9 27 11 27 11 20 0z m-3320 -64 c39 -21 13 -21 -31 0 -18 9 -39 14
-46 11 -9 -3 -6 -7 7 -12 56 -19 57 -22 8 -21 -30 1 -46 4 -40 9 9 6 9 10 -1
14 -10 4 -9 8 4 18 19 14 49 8 99 -19z m3085 14 c0 -5 -5 -10 -11 -10 -5 0 -7
5 -4 10 3 6 8 10 11 10 2 0 4 -4 4 -10z m-2935 -70 c3 -5 -1 -10 -9 -10 -9 0
-16 5 -16 10 0 6 4 10 9 10 6 0 13 -4 16 -10z m2681 -15 c-11 -8 -26 -15 -34
-15 -7 0 -11 -4 -8 -9 3 -4 -7 -6 -22 -3 l-27 5 25 10 c14 5 32 13 40 17 8 5
22 9 30 9 11 0 10 -3 -4 -14z m-2623 -15 c3 -14 1 -18 -6 -13 -7 4 -22 7 -35
6 -19 -1 -19 0 -2 4 11 2 20 9 20 14 0 17 18 9 23 -11z m77 -6 l35 -14 -34 5
c-18 3 -40 5 -47 5 -8 0 -14 5 -14 10 0 13 18 12 60 -6z m2433 -11 c-7 -2 -19
-2 -25 0 -7 3 -2 5 12 5 14 0 19 -2 13 -5z m-2285 -30 c18 -3 35 -10 38 -15 4
-6 -10 -7 -33 -3 -59 10 -73 15 -73 27 0 6 8 7 18 3 9 -4 32 -9 50 -12z m2168
-20 c-11 -11 -17 4 -9 23 7 18 8 18 11 1 2 -10 1 -21 -2 -24z m-49 11 c-3 -3
-12 -4 -19 -1 -8 3 -5 6 6 6 11 1 17 -2 13 -5z m-2099 -31 c16 -16 16 -16 -1
-10 -10 4 -26 7 -35 7 -15 0 -15 2 -2 10 20 13 19 13 38 -7z m1989 11 c-3 -3
-12 -4 -19 -1 -8 3 -5 6 6 6 11 1 17 -2 13 -5z m56 -1 c-7 -2 -21 -2 -30 0
-10 3 -4 5 12 5 17 0 24 -2 18 -5z m92 -13 c14 -6 4 -8 -32 -7 -28 1 -46 5
-40 9 15 10 47 9 72 -2z m-192 -7 c-13 -2 -33 -2 -45 0 -13 2 -3 4 22 4 25 0
35 -2 23 -4z m-230 -40 c-7 -2 -21 -2 -30 0 -10 3 -4 5 12 5 17 0 24 -2 18 -5z
m34 -29 c-2 -3 -130 -6 -283 -8 -222 -2 -256 0 -164 6 63 5 174 7 245 5 75 -3
117 -1 100 4 -20 5 -12 6 26 2 40 -3 59 -1 65 8 6 10 9 10 12 0 2 -7 2 -14 -1
-17z m-1322 6 l50 -7 -55 0 c-30 -1 -68 3 -85 7 l-30 8 35 0 c19 0 58 -3 85
-8z m79 -5 c-4 -8 -7 -15 -9 -15 -2 0 -5 7 -9 15 -3 9 0 15 9 15 9 0 12 -6 9
-15z m106 -5 c-67 -5 -83 -4 -76 8 2 4 35 5 73 2 l68 -4 -65 -6z m-273 -6 c-3
-3 -12 -4 -19 -1 -8 3 -5 6 6 6 11 1 17 -2 13 -5z m446 -1 c-7 -2 -21 -2 -30
0 -10 3 -4 5 12 5 17 0 24 -2 18 -5z m80 0 c-7 -2 -21 -2 -30 0 -10 3 -4 5 12
5 17 0 24 -2 18 -5z"/>
<path d="M7825 6386 c-16 -13 -28 -26 -25 -29 3 -3 21 8 40 24 41 35 28 39
-15 5z"/>
<path d="M7880 6460 c0 -5 5 -10 10 -10 6 0 10 5 10 10 0 6 -4 10 -10 10 -5 0
-10 -4 -10 -10z"/>
<path d="M5330 3026 c0 -6 184 -50 198 -47 8 1 20 -3 27 -9 14 -11 35 -6 35 8
0 14 -82 33 -118 27 l-37 -5 35 12 35 12 -29 4 c-16 2 -32 -1 -36 -8 -5 -8
-19 -8 -51 -1 -49 12 -59 13 -59 7z"/>
<path d="M8545 2980 c-3 -5 -1 -10 4 -10 6 0 11 5 11 10 0 6 -2 10 -4 10 -3 0
-8 -4 -11 -10z"/>
<path d="M5178 3103 c7 -3 16 -2 19 1 4 3 -2 6 -13 5 -11 0 -14 -3 -6 -6z"/>
</g>
</svg>
