<?xml version="1.0" standalone="no"?>
<!DOCTYPE svg PUBLIC "-//W3C//DTD SVG 20010904//EN"
 "http://www.w3.org/TR/2001/REC-SVG-20010904/DTD/svg10.dtd">
<svg version="1.0" xmlns="http://www.w3.org/2000/svg"
 width="320.000000pt" height="320.000000pt" viewBox="0 0 320.000000 320.000000"
 preserveAspectRatio="xMidYMid meet">

<g transform="translate(0.000000,320.000000) scale(0.100000,-0.100000)"
fill="#000000" stroke="none">
<path d="M0 1600 l0 -1600 1600 0 1600 0 0 1600 0 1600 -1600 0 -1600 0 0
-1600z m833 1269 c94 -19 235 -70 333 -120 86 -44 102 -49 161 -49 l65 0 -7
-37 c-11 -60 -61 -160 -89 -178 -26 -17 -29 -16 -191 54 -191 83 -393 152
-520 177 -130 26 -310 24 -390 -4 l-60 -21 38 33 c76 68 234 135 362 155 68
11 220 6 298 -10z m1852 -123 c141 -29 240 -75 316 -143 53 -48 52 -65 -2 -46
-137 47 -383 65 -605 44 -150 -14 -379 -51 -490 -80 -43 -11 -80 -18 -82 -16
-13 12 -58 245 -48 244 6 0 31 -8 56 -17 43 -17 51 -17 154 0 60 10 148 22
195 27 117 13 419 5 506 -13z m150 -390 c135 -37 241 -109 286 -198 53 -103
25 -388 -56 -572 -73 -164 -178 -264 -333 -313 -58 -18 -95 -23 -185 -23 -137
0 -215 18 -327 72 -69 34 -102 59 -175 133 -103 103 -161 196 -210 338 -17 51
-36 101 -42 112 -6 11 -18 44 -27 73 l-18 52 -138 0 -139 0 -21 -57 c-12 -32
-28 -66 -37 -75 -8 -9 -29 -57 -45 -105 -90 -270 -283 -462 -526 -524 -94 -24
-262 -26 -347 -4 -242 64 -395 284 -435 630 -14 130 -13 167 11 231 46 121
159 201 335 237 46 9 338 12 1215 10 1026 -1 1161 -3 1214 -17z m-600 -1237
c29 -10 45 -24 57 -49 24 -49 48 -197 48 -293 l0 -81 -32 31 c-18 17 -55 47
-81 67 l-49 36 -578 0 c-477 0 -580 -2 -587 -14 -4 -7 -34 -42 -67 -77 l-59
-64 7 130 c7 143 28 261 50 283 29 29 452 51 916 48 258 -2 344 -6 375 -17z"/>
<path d="M1296 2226 c22 -19 53 -53 69 -76 l29 -41 209 7 209 7 67 68 67 69
-346 0 -345 0 41 -34z"/>
</g>
</svg>
