<?xml version="1.0" standalone="no"?>
<!DOCTYPE svg PUBLIC "-//W3C//DTD SVG 20010904//EN"
 "http://www.w3.org/TR/2001/REC-SVG-20010904/DTD/svg10.dtd">
<svg version="1.0" xmlns="http://www.w3.org/2000/svg"
 width="320.000000pt" height="320.000000pt" viewBox="0 0 320.000000 320.000000"
 preserveAspectRatio="xMidYMid meet">

<g transform="translate(0.000000,320.000000) scale(0.100000,-0.100000)"
fill="#000000" stroke="none">
<path d="M2695 2481 c-140 -23 -237 -53 -348 -108 -131 -65 -223 -128 -307
-208 -100 -96 -154 -135 -253 -183 -172 -85 -326 -117 -512 -109 -150 7 -261
35 -378 94 -118 59 -243 99 -370 117 -139 21 -235 20 -391 -4 -71 -11 -130
-20 -132 -20 -2 0 -4 -319 -4 -709 l0 -708 31 -7 c105 -21 352 6 514 55 201
62 354 148 485 275 79 75 125 101 264 148 282 94 611 100 883 15 410 -128 637
-137 956 -37 l67 21 0 677 0 677 -72 13 c-123 21 -309 21 -433 1z m-87 -814
c110 -72 106 -231 -6 -308 -52 -35 -143 -34 -199 3 -116 76 -105 254 19 317
57 29 131 25 186 -12z m-1920 -310 c110 -72 106 -231 -6 -308 -52 -35 -143
-34 -199 3 -116 76 -105 254 19 317 57 29 131 25 186 -12z"/>
<path d="M1885 934 c-5 -2 -75 -18 -155 -35 -121 -26 -175 -33 -330 -38 -113
-4 -185 -10 -184 -16 1 -5 73 -51 160 -102 87 -50 162 -99 166 -110 4 -10 23
-146 43 -303 20 -157 38 -295 41 -308 6 -29 34 -29 34 1 0 29 -38 508 -46 572
-4 34 -1 55 8 66 10 13 127 120 293 270 9 9 -11 11 -30 3z"/>
<path d="M2055 705 c-14 -13 -25 -36 -25 -50 0 -33 42 -75 75 -75 33 0 75 42
75 75 0 33 -42 75 -75 75 -14 0 -37 -11 -50 -25z"/>
<path d="M865 555 c-16 -15 -25 -36 -25 -55 0 -19 9 -40 25 -55 49 -50 135
-15 135 55 0 41 -39 80 -80 80 -19 0 -40 -9 -55 -25z"/>
<path d="M2608 543 c-28 -32 -38 -61 -38 -106 0 -95 77 -147 124 -84 29 40 30
134 0 174 -25 34 -64 41 -86 16z"/>
<path d="M617 212 c-33 -36 -8 -92 40 -92 25 0 53 30 53 57 0 46 -62 69 -93
35z"/>
</g>
</svg>
