<?xml version="1.0" standalone="no"?>
<!DOCTYPE svg PUBLIC "-//W3C//DTD SVG 20010904//EN"
 "http://www.w3.org/TR/2001/REC-SVG-20010904/DTD/svg10.dtd">
<svg version="1.0" xmlns="http://www.w3.org/2000/svg"
 width="320.000000pt" height="320.000000pt" viewBox="0 0 320.000000 320.000000"
 preserveAspectRatio="xMidYMid meet">

<g transform="translate(0.000000,320.000000) scale(0.100000,-0.100000)"
fill="#000000" stroke="none">
<path d="M0 2750 l0 -450 1600 0 1600 0 0 450 0 450 -1600 0 -1600 0 0 -450z
m430 -35 c37 -19 60 -62 60 -111 0 -28 -8 -44 -34 -70 -29 -29 -41 -34 -81
-34 -40 0 -52 5 -81 34 -28 28 -34 42 -34 76 0 52 13 76 53 100 38 24 78 25
117 5z m1245 -15 c55 -52 54 -135 -2 -179 -35 -28 -111 -29 -146 -1 -30 24
-51 81 -43 114 8 31 44 76 70 87 33 14 96 3 121 -21z m1210 -2 c41 -32 59 -81
45 -124 -24 -72 -102 -104 -169 -69 -30 15 -61 69 -61 105 0 29 26 76 52 94
33 23 100 20 133 -6z"/>
<path d="M326 2669 c-55 -43 -23 -129 49 -129 69 0 100 76 50 125 -30 30 -64
32 -99 4z"/>
<path d="M1552 2670 c-53 -50 -29 -122 42 -128 81 -7 112 85 47 135 -24 19
-65 15 -89 -7z"/>
<path d="M2761 2654 c-28 -35 -26 -69 4 -99 60 -61 153 2 120 81 -22 52 -90
62 -124 18z"/>
<path d="M0 1118 l0 -1118 228 0 229 0 94 93 c52 51 134 123 182 161 84 66
241 166 259 166 4 0 8 -94 8 -210 l0 -210 35 0 35 0 2 233 3 232 80 32 c44 18
119 41 166 52 89 22 236 41 244 32 3 -2 5 -134 5 -293 l0 -288 30 0 30 0 0
289 c0 160 4 292 9 295 15 10 184 -14 276 -38 50 -14 122 -38 160 -54 l70 -30
3 -231 2 -231 30 0 30 0 0 210 c0 116 4 210 8 210 17 0 171 -102 247 -163 45
-36 124 -108 177 -161 l97 -96 230 0 231 0 0 1118 0 1117 -1600 0 -1600 0 0
-1117z m681 512 c128 -24 252 -119 307 -237 24 -52 27 -70 27 -164 0 -101 -1
-108 -37 -181 -45 -91 -103 -147 -196 -191 -63 -30 -74 -32 -177 -32 -104 0
-114 2 -176 32 -166 82 -263 264 -231 436 32 169 155 297 322 333 71 16 95 16
161 4z m2027 -17 c187 -63 307 -262 272 -454 -24 -129 -112 -245 -229 -301
-54 -26 -82 -33 -152 -36 -183 -9 -327 74 -406 237 -25 51 -28 66 -28 166 0
99 3 116 27 168 53 113 176 211 298 237 57 11 158 4 218 -17z"/>
<path d="M520 1564 c-110 -30 -190 -99 -238 -203 -35 -74 -36 -179 -3 -263 29
-75 99 -149 176 -185 53 -25 72 -28 155 -28 83 0 102 4 151 28 67 32 142 109
172 175 33 72 31 207 -4 283 -71 151 -253 237 -409 193z m196 -122 c167 -85
178 -309 20 -407 -40 -24 -62 -30 -120 -33 -63 -3 -78 0 -126 25 -186 97 -164
354 36 429 51 19 138 12 190 -14z"/>
<path d="M2504 1570 c-107 -22 -194 -87 -244 -182 -45 -85 -53 -193 -20 -280
28 -75 104 -159 177 -194 72 -36 187 -44 261 -20 105 35 191 118 228 217 24
67 22 172 -6 244 -58 150 -239 248 -396 215z m201 -138 c64 -45 98 -102 103
-172 6 -80 -16 -137 -73 -189 -204 -188 -522 55 -377 289 69 111 240 147 347
72z"/>
</g>
</svg>
